<?xml version="1.0" standalone="no"?>
<!DOCTYPE svg PUBLIC "-//W3C//DTD SVG 20010904//EN"
 "http://www.w3.org/TR/2001/REC-SVG-20010904/DTD/svg10.dtd">
<svg version="1.0" xmlns="http://www.w3.org/2000/svg"
 width="300.000000pt" height="300.000000pt" viewBox="0 0 300.000000 300.000000"
 preserveAspectRatio="xMidYMid meet">
<metadata>
Created by potrace 1.11, written by Peter Selinger 2001-2013
</metadata>
<g transform="translate(0.000000,300.000000) scale(0.100000,-0.100000)"
fill="#000000" stroke="none">
<path d="M69 2045 c-1 -5 -2 -247 -3 -538 0 -345 2 -527 9 -528 37 -4 508 -3
518 1 16 6 18 1069 2 1071 -5 1 -126 2 -267 3 -169 1 -258 -2 -259 -9z"/>
<path d="M671 2050 c-5 -3 -8 -246 -8 -540 l0 -535 311 0 311 0 3 90 3 90
-221 -1 c-122 0 -223 3 -226 8 -3 4 -5 207 -5 450 l1 443 -81 0 c-44 0 -84 -2
-88 -5z"/>
<path d="M1315 1517 c0 -470 2 -537 15 -538 83 -7 648 -4 658 4 15 12 65 41
108 63 l32 17 0 453 c0 250 -3 454 -7 454 -3 0 -22 10 -41 22 -19 12 -37 22
-40 23 -3 0 -18 9 -35 20 -28 19 -47 20 -360 20 l-330 0 0 -538z m628 354 c4
0 6 -162 5 -358 l-3 -358 -222 0 -223 -1 0 361 0 360 218 -1 c119 -1 220 -2
225 -3z"/>
<path d="M2285 2029 c-27 -15 -65 -35 -82 -45 l-33 -19 1 -225 1 -225 80 -45
80 -44 234 0 c205 0 234 -2 235 -15 1 -18 1 -205 0 -236 -1 -20 -6 -21 -226
-21 l-225 0 0 23 c0 23 -2 24 -90 22 l-90 -1 1 -67 1 -66 77 -45 76 -45 250 0
250 1 77 44 77 45 -2 225 -2 224 -75 46 -75 45 -237 0 -238 0 0 136 0 135 225
0 c147 0 225 -4 226 -11 1 -5 1 -16 0 -23 -2 -9 21 -12 89 -11 l90 1 0 67 c0
64 -2 68 -27 82 -16 7 -50 27 -78 44 l-50 30 -245 0 -245 0 -50 -26z"/>
</g>
</svg>
